<svg xmlns="http://www.w3.org/2000/svg" width="300" height="225" viewBox="189 50.5 300 225"><style>.a{fill:#F1F2F2;stroke:#F1F2F2;}</style><path d="M279 156.3c15.4 0 27.8-9 27.8-20.1 0-11.1-12.5-20.1-27.8-20.1s-27.8 9-27.8 20.1C251.2 147.3 263.6 156.3 279 156.3zM279 123.3c9.8 0 17.8 5.8 17.8 12.9 0 7.1-8 12.9-17.8 12.9s-17.8-5.8-17.8-12.9C261.2 129.1 269.2 123.3 279 123.3z" class="a"/><path d="M214 69.3v144.2 43.3h250v-43.3V69.3H214zM224 76.5h230v96.4l-51.6-34.1c-1-0.6-2.3-1-3.6-0.9 -1.3 0-2.6 0.5-3.5 1.2l-49 38.7 -23.7-17.1c-1.9-1.3-4.9-1.4-6.8-0.2l-83.7 53.1H224V76.5zM454 249.5H224v-28.8h230V249.5L454 249.5zM247.2 213.5l71.6-45.5 51.5 37.1c2 1.4 5.1 1.4 7.1 0 2-1.4 2-3.7 0-5.1l-24-17.3 45.9-36.3 54.7 36.2v30.9L247.2 213.5 247.2 213.5z" class="a"/></svg>
